# xmcd
#
# Track frame offsets:
#	150
#	19522
#	35722
#	57596
#	78136
#	95817
#	116986
#	144358
#	167946
#	183364
#	192705
#	206356
#	217761
#	220011
#
# Disc length: 3150 seconds
#
# Revision: 2
# Processed by: cddbd v1.5.2PL0 Copyright (c) Steve Scherf et al.
# Submitted via: audiograbber 1.83.01
#
DISCID=cc0c4c0e
DTITLE=Freygang - Aus Liebe
DYEAR=2001
DGENRE=Rock
TTITLE0=AUS LIEBE
TTITLE1=RUMMELPLATZBESITZER
TTITLE2=NYC
TTITLE3=BULLENCALYPSO
TTITLE4=ALCHEMISTEN
TTITLE5=FRÜHLING
TTITLE6=HEXENLAUF
TTITLE7=HEY SEELE
TTITLE8=MARIANER
TTITLE9=DAS FEST IST VORBEI
TTITLE10=SCHALL UND RAUCH
TTITLE11=X VOR U
TTITLE12=Ruhe
TTITLE13=Zwei Bier, zwei Korn
EXTD=
EXTT0=
EXTT1=
EXTT2=
EXTT3=
EXTT4=
EXTT5=
EXTT6=
EXTT7=
EXTT8=
EXTT9=
EXTT10=
EXTT11=
EXTT12=
EXTT13=
PLAYORDER=
